<svg xmlns="http://www.w3.org/2000/svg" xmlns:xlink="http://www.w3.org/1999/xlink" viewBox="0 0 33.47 33.47"><defs><style>.cls-1{fill:url(#linear-gradient);}.cls-2{fill:url(#linear-gradient-2);}.cls-3{fill:url(#linear-gradient-3);}.cls-4{fill:url(#linear-gradient-4);}.cls-5{fill:url(#linear-gradient-5);}.cls-6{fill:url(#linear-gradient-6);}.cls-7{fill:url(#linear-gradient-7);}.cls-8{fill:url(#linear-gradient-8);}.cls-9{fill:url(#linear-gradient-9);}</style><linearGradient id="linear-gradient" x1="0.51" y1="25.94" x2="33.75" y2="25.94" gradientUnits="userSpaceOnUse"><stop offset="0" stop-color="#b7b7ba"/><stop offset="1"/></linearGradient><linearGradient id="linear-gradient-2" x1="0.51" y1="16.73" x2="33.75" y2="16.73" xlink:href="#linear-gradient"/><linearGradient id="linear-gradient-3" x1="0.51" y1="7.52" x2="33.75" y2="7.52" xlink:href="#linear-gradient"/><linearGradient id="linear-gradient-4" x1="0.51" y1="24.34" x2="33.75" y2="24.34" gradientUnits="userSpaceOnUse"><stop offset="0" stop-color="#8fc7ec"/><stop offset="1" stop-color="#263371"/></linearGradient><linearGradient id="linear-gradient-5" x1="0.51" y1="9.12" x2="33.75" y2="9.12" xlink:href="#linear-gradient-4"/><linearGradient id="linear-gradient-6" x1="0.51" y1="16.73" x2="33.75" y2="16.73" xlink:href="#linear-gradient"/><linearGradient id="linear-gradient-7" x1="0.51" y1="22.2" x2="33.75" y2="22.2" xlink:href="#linear-gradient-4"/><linearGradient id="linear-gradient-8" x1="0.51" y1="16.73" x2="33.75" y2="16.73" xlink:href="#linear-gradient"/><linearGradient id="linear-gradient-9" x1="0.51" y1="11.26" x2="33.75" y2="11.26" xlink:href="#linear-gradient-4"/></defs><g id="Layer_2" data-name="Layer 2"><g id="Layer_1-2" data-name="Layer 1"><path class="cls-1" d="M26,27.57a15,15,0,0,1-25.26-9c0-.05,0-.1-.07-.1l-.58,0s0,0,0,.08a17,17,0,0,0,16.71,15A17,17,0,0,0,33.17,19.84a.12.12,0,0,0-.11-.14H30.43a.18.18,0,0,0-.17.15A15.12,15.12,0,0,1,26,27.57Z"/><path class="cls-2" d="M30.59,16.73c0,.51,0,1-.07,1.51a.11.11,0,0,0,.12.12h2.61a.16.16,0,0,0,.15-.15,14.52,14.52,0,0,0,.07-1.48c0-.51,0-1-.07-1.51a.14.14,0,0,0-.15-.13H30.64a.13.13,0,0,0-.13.13A12.62,12.62,0,0,1,30.59,16.73Z"/><path class="cls-3" d="M16.71,0A17,17,0,0,0,0,15v0c0,.05.07.05.12.05l.51,0s.06,0,.07-.1A15,15,0,0,1,15.12,1.75,15,15,0,0,1,30.26,13.61a.17.17,0,0,0,.16.14h2.64a.1.1,0,0,0,.1-.13A17,17,0,0,0,16.71,0Z"/><path class="cls-4" d="M12.21,28A11.37,11.37,0,0,1,2.09,18.62c0-.05,0-.1-.09-.1s-.35,0-.52,0-.06,0-.06.09A13.78,13.78,0,0,0,14.06,30.17a13.41,13.41,0,0,0,9.79-3.6,13.55,13.55,0,0,0,3.89-6.74.1.1,0,0,0-.1-.13H23.73a.17.17,0,0,0-.16.12A11.21,11.21,0,0,1,12.21,28Z"/><path class="cls-5" d="M23.84,6.89a13.45,13.45,0,0,0-9.78-3.6A13.8,13.8,0,0,0,1.42,14.88s0,.09.06.09.35,0,.52,0,.08,0,.09-.1A11.38,11.38,0,0,1,12.21,5.51a11.19,11.19,0,0,1,11.35,8.12.17.17,0,0,0,.17.12h3.91a.1.1,0,0,0,.1-.12A13.45,13.45,0,0,0,23.84,6.89Z"/><path class="cls-6" d="M23.9,18.21a.12.12,0,0,0,.11.15h3.86a.16.16,0,0,0,.15-.15,12.12,12.12,0,0,0,.09-1.48A12.5,12.5,0,0,0,28,15.22a.15.15,0,0,0-.15-.13H24a.13.13,0,0,0-.11.15,10.46,10.46,0,0,1,.1,1.49A10.32,10.32,0,0,1,23.9,18.21Z"/><path class="cls-7" d="M11.86,22.25a5.42,5.42,0,0,1-4.77-3.43.15.15,0,0,0-.13-.1l-3-.11s-.07,0-.06.1a9.08,9.08,0,0,0,8.14,7.07,8.93,8.93,0,0,0,8.83-6,.1.1,0,0,0-.09-.13H16.72a.29.29,0,0,0-.21.11A5.32,5.32,0,0,1,11.86,22.25Z"/><path class="cls-8" d="M21.42,16.73a10.33,10.33,0,0,0-.12-1.49.18.18,0,0,0-.17-.15H17.32a.11.11,0,0,0-.09.15,5.65,5.65,0,0,1,0,3,.1.1,0,0,0,.09.14h3.82a.17.17,0,0,0,.16-.14A10.57,10.57,0,0,0,21.42,16.73Z"/><path class="cls-9" d="M12.05,7.68a9.06,9.06,0,0,0-8.14,7.07c0,.05,0,.1.06.1l3-.11a.16.16,0,0,0,.13-.11,5.44,5.44,0,0,1,4.77-3.42,5.29,5.29,0,0,1,4.65,2.43.26.26,0,0,0,.21.11h4.07a.09.09,0,0,0,.08-.13A8.92,8.92,0,0,0,12.05,7.68Z"/></g></g></svg>