<svg id="Layer_1" data-name="Layer 1" xmlns="http://www.w3.org/2000/svg" xmlns:xlink="http://www.w3.org/1999/xlink" viewBox="0 0 163.1 33.47"><defs><style>.cls-1{fill:url(#linear-gradient);}.cls-2{fill:url(#linear-gradient-2);}.cls-3{fill:url(#linear-gradient-3);}.cls-4{fill:url(#linear-gradient-4);}.cls-5{fill:url(#linear-gradient-5);}.cls-6{fill:url(#linear-gradient-6);}.cls-7{fill:url(#linear-gradient-7);}.cls-8{fill:url(#linear-gradient-8);}.cls-9{fill:url(#linear-gradient-9);}.cls-10{fill:#7d7d7d;}</style><linearGradient id="linear-gradient" x1="96.46" y1="259.21" x2="129.7" y2="259.21" gradientUnits="userSpaceOnUse"><stop offset="0" stop-color="#b7b7ba"/><stop offset="1"/></linearGradient><linearGradient id="linear-gradient-2" x1="96.46" y1="249.99" x2="129.7" y2="249.99" xlink:href="#linear-gradient"/><linearGradient id="linear-gradient-3" x1="96.46" y1="240.79" x2="129.7" y2="240.79" xlink:href="#linear-gradient"/><linearGradient id="linear-gradient-4" x1="96.46" y1="257.6" x2="129.7" y2="257.6" gradientUnits="userSpaceOnUse"><stop offset="0" stop-color="#8fc7ec"/><stop offset="1" stop-color="#263371"/></linearGradient><linearGradient id="linear-gradient-5" x1="96.46" y1="242.39" x2="129.7" y2="242.39" xlink:href="#linear-gradient-4"/><linearGradient id="linear-gradient-6" x1="96.46" y1="249.99" x2="129.71" y2="249.99" xlink:href="#linear-gradient"/><linearGradient id="linear-gradient-7" x1="96.46" y1="255.47" x2="129.7" y2="255.47" xlink:href="#linear-gradient-4"/><linearGradient id="linear-gradient-8" x1="96.46" y1="249.99" x2="129.7" y2="249.99" xlink:href="#linear-gradient"/><linearGradient id="linear-gradient-9" x1="96.46" y1="244.52" x2="129.7" y2="244.52" xlink:href="#linear-gradient-4"/></defs><path class="cls-1" d="M121.92,260.83a15,15,0,0,1-25.27-9c0-.06,0-.1-.07-.1l-.58,0s0,0,0,.08a16.78,16.78,0,0,0,33.17,1.34A.11.11,0,0,0,129,253h-2.63a.18.18,0,0,0-.17.14A15.09,15.09,0,0,1,121.92,260.83Z" transform="translate(-95.95 -233.26)"/><path class="cls-2" d="M126.55,250a15,15,0,0,1-.08,1.51.12.12,0,0,0,.12.13h2.62a.16.16,0,0,0,.15-.15c0-.49.06-1,.07-1.49s0-1-.08-1.51a.14.14,0,0,0-.14-.13h-2.62a.12.12,0,0,0-.12.13A15.11,15.11,0,0,1,126.55,250Z" transform="translate(-95.95 -233.26)"/><path class="cls-3" d="M112.66,233.26a17,17,0,0,0-16.7,15,0,0,0,0,0,0,0s.07,0,.12,0l.5,0s.07,0,.07-.1a15,15,0,0,1,29.56-1.31.18.18,0,0,0,.17.15H129a.12.12,0,0,0,.11-.14A17,17,0,0,0,112.66,233.26Z" transform="translate(-95.95 -233.26)"/><path class="cls-4" d="M108.16,261.22A11.39,11.39,0,0,1,98,251.89c0-.06,0-.11-.08-.11l-.53,0s-.06,0-.05.09A13.76,13.76,0,0,0,110,263.44a13.42,13.42,0,0,0,9.79-3.6,13.6,13.6,0,0,0,3.9-6.75.11.11,0,0,0-.11-.12h-3.9a.16.16,0,0,0-.17.12A11.21,11.21,0,0,1,108.16,261.22Z" transform="translate(-95.95 -233.26)"/><path class="cls-5" d="M119.8,240.15a13.45,13.45,0,0,0-9.79-3.59,13.77,13.77,0,0,0-12.63,11.58c0,.05,0,.1.05.1l.53,0s.07-.05.08-.11a11.39,11.39,0,0,1,10.12-9.33,11.21,11.21,0,0,1,11.36,8.13.17.17,0,0,0,.17.12h3.9a.11.11,0,0,0,.11-.13A13.57,13.57,0,0,0,119.8,240.15Z" transform="translate(-95.95 -233.26)"/><path class="cls-6" d="M119.85,251.48a.13.13,0,0,0,.12.15h3.85a.16.16,0,0,0,.16-.15,14.72,14.72,0,0,0,.08-1.49,12.62,12.62,0,0,0-.09-1.51.15.15,0,0,0-.15-.13H120a.13.13,0,0,0-.12.15A10.56,10.56,0,0,1,120,250,10.45,10.45,0,0,1,119.85,251.48Z" transform="translate(-95.95 -233.26)"/><path class="cls-7" d="M107.81,255.51a5.44,5.44,0,0,1-4.77-3.42.15.15,0,0,0-.13-.11l-3-.11s-.07,0-.06.1A9.08,9.08,0,0,0,108,259a8.92,8.92,0,0,0,8.83-5.94.1.1,0,0,0-.09-.13h-4.07a.23.23,0,0,0-.2.11A5.34,5.34,0,0,1,107.81,255.51Z" transform="translate(-95.95 -233.26)"/><path class="cls-8" d="M117.37,250a9.17,9.17,0,0,0-.12-1.49.18.18,0,0,0-.16-.15h-3.81a.11.11,0,0,0-.09.15,6,6,0,0,1,.19,1.49,5.58,5.58,0,0,1-.2,1.49c0,.07,0,.15.1.15h3.81a.18.18,0,0,0,.16-.15A9.08,9.08,0,0,0,117.37,250Z" transform="translate(-95.95 -233.26)"/><path class="cls-9" d="M108,240.94A9.06,9.06,0,0,0,99.87,248a.06.06,0,0,0,0,.09l3-.11a.16.16,0,0,0,.14-.1,5.42,5.42,0,0,1,4.77-3.43,5.34,5.34,0,0,1,4.65,2.43.24.24,0,0,0,.2.12h4.07a.1.1,0,0,0,.09-.14A8.93,8.93,0,0,0,108,240.94Z" transform="translate(-95.95 -233.26)"/><path d="M138.55,246.31H135v-2.42h9.81v2.42h-3.54v10h-2.73Z" transform="translate(-95.95 -233.26)"/><path d="M147.72,243.89h8.43v2.53h-5.7v2.31h5.38v2.52h-5.38v2.53h6v2.52h-8.74Z" transform="translate(-95.95 -233.26)"/><path d="M168.17,247.12a2.92,2.92,0,0,0-2.35-1,3.7,3.7,0,0,0-3.59,4c0,2.31,1.53,4,3.51,4a3,3,0,0,0,2.56-1.33l2.27,1.7a5.41,5.41,0,0,1-4.48,2.16c-3.88,0-6.7-2.54-6.7-6.52s2.82-6.52,6.7-6.52a5.34,5.34,0,0,1,4.19,1.82Z" transform="translate(-95.95 -233.26)"/><path class="cls-10" d="M179.6,246.93a2.62,2.62,0,0,0-2-.83c-.77,0-1.84.35-1.84,1.28,0,2.26,5.72.81,5.72,5.15,0,2.77-2.23,4.09-4.79,4.09a5.88,5.88,0,0,1-4.17-1.56l1.94-2.14a3.05,3.05,0,0,0,2.39,1.17c.89,0,1.89-.42,1.89-1.29,0-2.28-5.82-1.05-5.82-5.19,0-2.65,2.3-4,4.73-4a5.65,5.65,0,0,1,3.81,1.29Z" transform="translate(-95.95 -233.26)"/><path class="cls-10" d="M188,251l-4.66-7.12h3.4l2.63,4.65,2.79-4.65h3.24L190.72,251v5.29H188Z" transform="translate(-95.95 -233.26)"/><path class="cls-10" d="M203.83,246.93a2.62,2.62,0,0,0-2-.83c-.77,0-1.84.35-1.84,1.28,0,2.26,5.71.81,5.71,5.15,0,2.77-2.22,4.09-4.78,4.09a5.86,5.86,0,0,1-4.17-1.56l1.94-2.14a3,3,0,0,0,2.39,1.17c.89,0,1.89-.42,1.89-1.29,0-2.28-5.82-1.05-5.82-5.19,0-2.65,2.3-4,4.73-4a5.68,5.68,0,0,1,3.81,1.29Z" transform="translate(-95.95 -233.26)"/><path class="cls-10" d="M211.56,246.31H208v-2.42h9.82v2.42H214.3v10h-2.74Z" transform="translate(-95.95 -233.26)"/><path class="cls-10" d="M220.73,243.89h8.43v2.53h-5.7v2.31h5.39v2.52h-5.39v2.53h6v2.52h-8.75Z" transform="translate(-95.95 -233.26)"/><path class="cls-10" d="M233.07,243.89h4.14l2.86,8.1h0l2.87-8.1h4.12V256.3h-2.73v-9.51h0l-3.26,9.51H239l-3.14-9.51h0v9.51h-2.74Z" transform="translate(-95.95 -233.26)"/><path class="cls-10" d="M257.16,246.93a2.63,2.63,0,0,0-2-.83c-.77,0-1.84.35-1.84,1.28,0,2.26,5.71.81,5.71,5.15,0,2.77-2.23,4.09-4.78,4.09a5.9,5.9,0,0,1-4.18-1.56l1.95-2.14a3,3,0,0,0,2.38,1.17c.9,0,1.9-.42,1.9-1.29,0-2.28-5.82-1.05-5.82-5.19,0-2.65,2.29-4,4.73-4a5.64,5.64,0,0,1,3.8,1.29Z" transform="translate(-95.95 -233.26)"/></svg>